<mxfile host="app.diagrams.net" agent="Mozilla/5.0 (Windows NT 10.0; Win64; x64) AppleWebKit/537.36 (KHTML, like Gecko) Chrome/118.0.0.0 Safari/537.36" version="28.0.4">
  <diagram name="第 1 页" id="NgOVHGxGYUFNgDBGUTzl">
    <mxGraphModel dx="854" dy="373" grid="1" gridSize="10" guides="1" tooltips="1" connect="1" arrows="1" fold="1" page="1" pageScale="1" pageWidth="827" pageHeight="1169" math="0" shadow="0">
      <root>
        <mxCell id="0" />
        <mxCell id="1" parent="0" />
        <mxCell id="jvt7x8LLwXbL2KF5IUfq-15" style="edgeStyle=orthogonalEdgeStyle;rounded=0;orthogonalLoop=1;jettySize=auto;html=1;exitX=0.5;exitY=1;exitDx=0;exitDy=0;" parent="1" edge="1">
          <mxGeometry relative="1" as="geometry">
            <mxPoint x="180" y="60" as="sourcePoint" />
            <mxPoint x="180" y="60" as="targetPoint" />
          </mxGeometry>
        </mxCell>
        <mxCell id="jvt7x8LLwXbL2KF5IUfq-147" value="&lt;b&gt;完全二叉树&lt;/b&gt;" style="text;strokeColor=none;align=center;fillColor=none;html=1;verticalAlign=middle;whiteSpace=wrap;rounded=0;" parent="1" vertex="1">
          <mxGeometry x="170" y="280" width="76" height="20" as="geometry" />
        </mxCell>
        <mxCell id="jvt7x8LLwXbL2KF5IUfq-148" value="&lt;b&gt;非完全二叉树&lt;/b&gt;" style="text;strokeColor=none;align=center;fillColor=none;html=1;verticalAlign=middle;whiteSpace=wrap;rounded=0;" parent="1" vertex="1">
          <mxGeometry x="180" y="640" width="84" height="20" as="geometry" />
        </mxCell>
        <mxCell id="GpuxIfwJxJA2RgfFH0Vw-1" value="" style="group" vertex="1" connectable="0" parent="1">
          <mxGeometry x="230" y="200" width="299.6270942172581" height="291.7699513601153" as="geometry" />
        </mxCell>
        <mxCell id="bZnhlIYhGEdykp7kIhBm-1" value="" style="endArrow=none;html=1;rounded=0;entryX=0.118;entryY=0.818;entryDx=0;entryDy=0;entryPerimeter=0;exitX=0.725;exitY=0.069;exitDx=0;exitDy=0;exitPerimeter=0;" parent="GpuxIfwJxJA2RgfFH0Vw-1" edge="1" target="jvt7x8LLwXbL2KF5IUfq-48" source="jvt7x8LLwXbL2KF5IUfq-30">
          <mxGeometry width="50" height="50" relative="1" as="geometry">
            <mxPoint x="99.60702250807026" y="120.0016926195737" as="sourcePoint" />
            <mxPoint x="158.02999999999997" y="44.56999999999999" as="targetPoint" />
          </mxGeometry>
        </mxCell>
        <mxCell id="bZnhlIYhGEdykp7kIhBm-2" value="" style="endArrow=none;html=1;rounded=0;entryX=0.935;entryY=0.731;entryDx=0;entryDy=0;entryPerimeter=0;exitX=0.361;exitY=0.028;exitDx=0;exitDy=0;exitPerimeter=0;" parent="GpuxIfwJxJA2RgfFH0Vw-1" edge="1" target="jvt7x8LLwXbL2KF5IUfq-48" source="jvt7x8LLwXbL2KF5IUfq-33">
          <mxGeometry width="50" height="50" relative="1" as="geometry">
            <mxPoint x="264.63" y="120" as="sourcePoint" />
            <mxPoint x="204.63" y="40" as="targetPoint" />
          </mxGeometry>
        </mxCell>
        <mxCell id="bZnhlIYhGEdykp7kIhBm-3" value="" style="endArrow=none;html=1;rounded=0;exitX=0.536;exitY=-0.007;exitDx=0;exitDy=0;exitPerimeter=0;entryX=0.213;entryY=0.901;entryDx=0;entryDy=0;entryPerimeter=0;" parent="GpuxIfwJxJA2RgfFH0Vw-1" edge="1" target="jvt7x8LLwXbL2KF5IUfq-30" source="jvt7x8LLwXbL2KF5IUfq-36">
          <mxGeometry width="50" height="50" relative="1" as="geometry">
            <mxPoint x="16.00480183750679" y="238.23000000000002" as="sourcePoint" />
            <mxPoint x="62.02999999999997" y="170" as="targetPoint" />
          </mxGeometry>
        </mxCell>
        <mxCell id="bZnhlIYhGEdykp7kIhBm-4" value="" style="endArrow=none;html=1;rounded=0;exitX=0.5;exitY=0;exitDx=0;exitDy=0;entryX=0.764;entryY=0.914;entryDx=0;entryDy=0;entryPerimeter=0;" parent="GpuxIfwJxJA2RgfFH0Vw-1" source="jvt7x8LLwXbL2KF5IUfq-39" edge="1" target="jvt7x8LLwXbL2KF5IUfq-30">
          <mxGeometry width="50" height="50" relative="1" as="geometry">
            <mxPoint x="140" y="231.76999999999998" as="sourcePoint" />
            <mxPoint x="100" y="171.76999999999998" as="targetPoint" />
          </mxGeometry>
        </mxCell>
        <mxCell id="bZnhlIYhGEdykp7kIhBm-5" value="" style="endArrow=none;html=1;rounded=0;entryX=0.37;entryY=0.971;entryDx=0;entryDy=0;entryPerimeter=0;exitX=0.555;exitY=0;exitDx=0;exitDy=0;exitPerimeter=0;" parent="GpuxIfwJxJA2RgfFH0Vw-1" edge="1" target="jvt7x8LLwXbL2KF5IUfq-33" source="jvt7x8LLwXbL2KF5IUfq-42">
          <mxGeometry width="50" height="50" relative="1" as="geometry">
            <mxPoint x="220" y="240" as="sourcePoint" />
            <mxPoint x="265.6551981624932" y="171.76999999999998" as="targetPoint" />
          </mxGeometry>
        </mxCell>
        <mxCell id="jvt7x8LLwXbL2KF5IUfq-113" value="" style="group" parent="GpuxIfwJxJA2RgfFH0Vw-1" vertex="1" connectable="0">
          <mxGeometry x="157.99714285714276" width="51.76995136011531" height="51.76995136011531" as="geometry" />
        </mxCell>
        <mxCell id="bZnhlIYhGEdykp7kIhBm-6" value="" style="group" parent="jvt7x8LLwXbL2KF5IUfq-113" vertex="1" connectable="0">
          <mxGeometry width="51.76995136011531" height="51.76995136011531" as="geometry" />
        </mxCell>
        <mxCell id="jvt7x8LLwXbL2KF5IUfq-48" value="A" style="ellipse;whiteSpace=wrap;html=1;aspect=fixed;fillColor=#E6FFCC;" parent="bZnhlIYhGEdykp7kIhBm-6" vertex="1">
          <mxGeometry width="51.76995136011531" height="51.76995136011531" as="geometry" />
        </mxCell>
        <mxCell id="bZnhlIYhGEdykp7kIhBm-7" value="" style="group" parent="GpuxIfwJxJA2RgfFH0Vw-1" vertex="1" connectable="0">
          <mxGeometry x="57.85714285714283" y="120" width="51.76995136011531" height="51.76995136011531" as="geometry" />
        </mxCell>
        <mxCell id="jvt7x8LLwXbL2KF5IUfq-30" value="B" style="ellipse;whiteSpace=wrap;html=1;aspect=fixed;fillColor=#CCFF99;" parent="bZnhlIYhGEdykp7kIhBm-7" vertex="1">
          <mxGeometry width="51.76995136011531" height="51.76995136011531" as="geometry" />
        </mxCell>
        <mxCell id="bZnhlIYhGEdykp7kIhBm-8" value="" style="group" parent="GpuxIfwJxJA2RgfFH0Vw-1" vertex="1" connectable="0">
          <mxGeometry x="247.85714285714283" y="120" width="51.76995136011531" height="51.76995136011531" as="geometry" />
        </mxCell>
        <mxCell id="jvt7x8LLwXbL2KF5IUfq-33" value="C" style="ellipse;whiteSpace=wrap;html=1;aspect=fixed;fillColor=#CCFF99;" parent="bZnhlIYhGEdykp7kIhBm-8" vertex="1">
          <mxGeometry width="51.76995136011531" height="51.76995136011531" as="geometry" />
        </mxCell>
        <mxCell id="bZnhlIYhGEdykp7kIhBm-9" value="" style="group" parent="GpuxIfwJxJA2RgfFH0Vw-1" vertex="1" connectable="0">
          <mxGeometry y="239.99999999999994" width="51.76995136011531" height="51.76995136011531" as="geometry" />
        </mxCell>
        <mxCell id="jvt7x8LLwXbL2KF5IUfq-36" value="D" style="ellipse;whiteSpace=wrap;html=1;aspect=fixed;fillColor=#99FF33;" parent="bZnhlIYhGEdykp7kIhBm-9" vertex="1">
          <mxGeometry width="51.76995136011531" height="51.76995136011531" as="geometry" />
        </mxCell>
        <mxCell id="bZnhlIYhGEdykp7kIhBm-10" value="" style="group" parent="GpuxIfwJxJA2RgfFH0Vw-1" vertex="1" connectable="0">
          <mxGeometry x="109.62285714285713" y="239.99999999999994" width="51.76995136011531" height="51.76995136011531" as="geometry" />
        </mxCell>
        <mxCell id="jvt7x8LLwXbL2KF5IUfq-39" value="E" style="ellipse;whiteSpace=wrap;html=1;aspect=fixed;fillColor=#99FF33;" parent="bZnhlIYhGEdykp7kIhBm-10" vertex="1">
          <mxGeometry width="51.76995136011531" height="51.76995136011531" as="geometry" />
        </mxCell>
        <mxCell id="bZnhlIYhGEdykp7kIhBm-11" value="" style="group" parent="GpuxIfwJxJA2RgfFH0Vw-1" vertex="1" connectable="0">
          <mxGeometry x="208.39142857142855" y="239.99999999999994" width="51.76995136011531" height="51.76995136011531" as="geometry" />
        </mxCell>
        <mxCell id="jvt7x8LLwXbL2KF5IUfq-42" value="F" style="ellipse;whiteSpace=wrap;html=1;aspect=fixed;fillColor=#99FF33;movable=1;resizable=1;rotatable=1;deletable=1;editable=1;locked=0;connectable=1;" parent="bZnhlIYhGEdykp7kIhBm-11" vertex="1">
          <mxGeometry width="51.76995136011531" height="51.76995136011531" as="geometry" />
        </mxCell>
        <mxCell id="GpuxIfwJxJA2RgfFH0Vw-2" value="" style="group" vertex="1" connectable="0" parent="1">
          <mxGeometry x="245.99714285714282" y="585" width="275.777094217258" height="291.76995136011533" as="geometry" />
        </mxCell>
        <mxCell id="bZnhlIYhGEdykp7kIhBm-13" value="" style="endArrow=none;html=1;rounded=0;entryX=0.231;entryY=0.928;entryDx=0;entryDy=0;entryPerimeter=0;exitX=0.722;exitY=0.049;exitDx=0;exitDy=0;exitPerimeter=0;" parent="GpuxIfwJxJA2RgfFH0Vw-2" edge="1" target="jvt7x8LLwXbL2KF5IUfq-104" source="jvt7x8LLwXbL2KF5IUfq-86">
          <mxGeometry width="50" height="50" relative="1" as="geometry">
            <mxPoint x="30.052857142857192" y="121.76999999999998" as="sourcePoint" />
            <mxPoint x="90.05285714285719" y="51.76999999999998" as="targetPoint" />
          </mxGeometry>
        </mxCell>
        <mxCell id="bZnhlIYhGEdykp7kIhBm-14" value="" style="endArrow=none;html=1;rounded=0;entryX=0.756;entryY=0.935;entryDx=0;entryDy=0;entryPerimeter=0;exitX=0.229;exitY=0.083;exitDx=0;exitDy=0;exitPerimeter=0;" parent="GpuxIfwJxJA2RgfFH0Vw-2" edge="1" target="jvt7x8LLwXbL2KF5IUfq-104" source="jvt7x8LLwXbL2KF5IUfq-89">
          <mxGeometry width="50" height="50" relative="1" as="geometry">
            <mxPoint x="183.29944914812683" y="122.78156943915371" as="sourcePoint" />
            <mxPoint x="124.00285714285718" y="51.76999999999998" as="targetPoint" />
          </mxGeometry>
        </mxCell>
        <mxCell id="bZnhlIYhGEdykp7kIhBm-15" value="" style="endArrow=none;html=1;rounded=0;exitX=0.304;exitY=0.097;exitDx=0;exitDy=0;exitPerimeter=0;entryX=0.642;entryY=0.963;entryDx=0;entryDy=0;entryPerimeter=0;" parent="GpuxIfwJxJA2RgfFH0Vw-2" edge="1" target="jvt7x8LLwXbL2KF5IUfq-86" source="jvt7x8LLwXbL2KF5IUfq-95">
          <mxGeometry width="50" height="50" relative="1" as="geometry">
            <mxPoint x="58.00285714285718" y="240" as="sourcePoint" />
            <mxPoint x="18.00285714285718" y="175" as="targetPoint" />
          </mxGeometry>
        </mxCell>
        <mxCell id="bZnhlIYhGEdykp7kIhBm-17" value="" style="endArrow=none;html=1;rounded=0;entryX=0.712;entryY=0.918;entryDx=0;entryDy=0;entryPerimeter=0;exitX=0.357;exitY=0.024;exitDx=0;exitDy=0;exitPerimeter=0;" parent="GpuxIfwJxJA2RgfFH0Vw-2" edge="1" target="jvt7x8LLwXbL2KF5IUfq-89" source="jvt7x8LLwXbL2KF5IUfq-101">
          <mxGeometry width="50" height="50" relative="1" as="geometry">
            <mxPoint x="254.00285714285718" y="236.76999999999998" as="sourcePoint" />
            <mxPoint x="214.00285714285718" y="171.76999999999998" as="targetPoint" />
          </mxGeometry>
        </mxCell>
        <mxCell id="jvt7x8LLwXbL2KF5IUfq-121" value="" style="group" parent="GpuxIfwJxJA2RgfFH0Vw-2" vertex="1" connectable="0">
          <mxGeometry x="73.99999999999994" width="51.76995136011531" height="51.76995136011531" as="geometry" />
        </mxCell>
        <mxCell id="bZnhlIYhGEdykp7kIhBm-19" value="" style="group" parent="jvt7x8LLwXbL2KF5IUfq-121" vertex="1" connectable="0">
          <mxGeometry width="51.76995136011531" height="51.76995136011531" as="geometry" />
        </mxCell>
        <mxCell id="jvt7x8LLwXbL2KF5IUfq-104" value="A" style="ellipse;whiteSpace=wrap;html=1;aspect=fixed;fillColor=#E6FFCC;" parent="bZnhlIYhGEdykp7kIhBm-19" vertex="1">
          <mxGeometry width="51.76995136011531" height="51.76995136011531" as="geometry" />
        </mxCell>
        <mxCell id="bZnhlIYhGEdykp7kIhBm-20" value="" style="group" parent="GpuxIfwJxJA2RgfFH0Vw-2" vertex="1" connectable="0">
          <mxGeometry y="120" width="51.76995136011531" height="51.76995136011531" as="geometry" />
        </mxCell>
        <mxCell id="jvt7x8LLwXbL2KF5IUfq-86" value="B" style="ellipse;whiteSpace=wrap;html=1;aspect=fixed;fillColor=#CCFF99;" parent="bZnhlIYhGEdykp7kIhBm-20" vertex="1">
          <mxGeometry width="51.76995136011531" height="51.76995136011531" as="geometry" />
        </mxCell>
        <mxCell id="bZnhlIYhGEdykp7kIhBm-21" value="" style="group" parent="GpuxIfwJxJA2RgfFH0Vw-2" vertex="1" connectable="0">
          <mxGeometry x="154" y="120" width="51.76995136011531" height="51.76995136011531" as="geometry" />
        </mxCell>
        <mxCell id="jvt7x8LLwXbL2KF5IUfq-89" value="C" style="ellipse;whiteSpace=wrap;html=1;aspect=fixed;fillColor=#CCFF99;" parent="bZnhlIYhGEdykp7kIhBm-21" vertex="1">
          <mxGeometry width="51.76995136011531" height="51.76995136011531" as="geometry" />
        </mxCell>
        <mxCell id="bZnhlIYhGEdykp7kIhBm-22" value="" style="group" parent="GpuxIfwJxJA2RgfFH0Vw-2" vertex="1" connectable="0">
          <mxGeometry x="64.0057142857143" y="240" width="51.76995136011531" height="51.76995136011531" as="geometry" />
        </mxCell>
        <mxCell id="jvt7x8LLwXbL2KF5IUfq-95" value="E" style="ellipse;whiteSpace=wrap;html=1;aspect=fixed;fillColor=#99FF33;" parent="bZnhlIYhGEdykp7kIhBm-22" vertex="1">
          <mxGeometry width="51.76995136011531" height="51.76995136011531" as="geometry" />
        </mxCell>
        <mxCell id="bZnhlIYhGEdykp7kIhBm-23" value="" style="group" parent="GpuxIfwJxJA2RgfFH0Vw-2" vertex="1" connectable="0">
          <mxGeometry x="224.0071428571427" y="240" width="51.76995136011531" height="51.76995136011531" as="geometry" />
        </mxCell>
        <mxCell id="jvt7x8LLwXbL2KF5IUfq-101" value="G" style="ellipse;whiteSpace=wrap;html=1;aspect=fixed;fillColor=#99FF33;" parent="bZnhlIYhGEdykp7kIhBm-23" vertex="1">
          <mxGeometry width="51.76995136011531" height="51.76995136011531" as="geometry" />
        </mxCell>
      </root>
    </mxGraphModel>
  </diagram>
</mxfile>
